# xmcd
#
# Track frame offsets: 
#        150
#        13964
#        32203
#        46012
#        64311
#        83719
#        100780
#        119414
#        133242
#        156080
#
# Disc length: 2301 seconds
#
# Revision: 4
# Processed by: cddbd v1.5.2PL0 Copyright (c) Steve Scherf et al.
# Submitted via: ExactAudioCopyFreeDBPlugin 1.0
#
DISCID=8308fb0a
DTITLE=Youth Group - The Night Is Ours
DYEAR=2008
DGENRE=Indie Rock
TTITLE0=Good Time
TTITLE1=One For Another
TTITLE2=Two Sides
TTITLE3=Dying At Your Own Party
TTITLE4=All This Will Pass
TTITLE5=Friedrichstrasse
TTITLE6=A Sign
TTITLE7=Babies In Your Dreams
TTITLE8=In My Dreams
TTITLE9=What Is A Life_
EXTD=
EXTT0=
EXTT1=
EXTT2=
EXTT3=
EXTT4=
EXTT5=
EXTT6=
EXTT7=
EXTT8=
EXTT9=ооо
PLAYORDER=
